<svg xmlns="http://www.w3.org/2000/svg" viewBox="0 0 73 47.87"><defs><style>.cls-1{fill:none;stroke:#3f3f3f;stroke-miterlimit:10;}</style></defs><g id="Layer_2" data-name="Layer 2"><g id="admin_panel" data-name="admin panel"><g id="blog"><path d="M65.18,36.72h5.34c1.74,0,2.48.72,2.47,2.44a22.48,22.48,0,0,1-.1,3.39c-.54,3.18-1.17,5.32-4.41,5.32-14.91,0-31.81,0-46.71,0-5,0-12.08,0-17.11,0C.76,47.87,0,45.09,0,41.21V39.15c0-1.69.74-2.43,2.41-2.43H7.82V8a7.64,7.64,0,0,1,8-8h41.3a7.63,7.63,0,0,1,8,8q0,13.85,0,27.68Zm-5.82,0V9.05a3,3,0,0,0-3.31-3.31H17A3,3,0,0,0,13.64,9V36.7Zm11.6,2H57.21c-1,0-2,0-3.05,0a.85.85,0,0,0-.63.36c-1.11,2.56-2.51,3.5-5.31,3.5H24.73c-.33,0-.66,0-1,0a4.69,4.69,0,0,1-4.13-3.19.86.86,0,0,0-1-.66q-7.91,0-15.82,0H2c0,1,0,2,0,2.9.06,1.56-.22,2.75,1.07,3.6a5.26,5.26,0,0,0,3.06.71H67.64c2.13-.06,3-1.55,3.29-3.65A26.09,26.09,0,0,0,71,38.7Zm-7.76-2v-.78Q63.2,22,63.2,8a5.66,5.66,0,0,0-6-6Q36.51,2,15.86,2A5.68,5.68,0,0,0,9.8,8.07q0,13.91,0,27.82v.79h2.88v-1q0-13.23,0-26.46c0-2.84,1.56-4.42,4.38-4.42H55.93c2.83,0,4.4,1.57,4.4,4.39V36.69Zm-42.71,2a3.74,3.74,0,0,0,3.88,2.86q12.14,0,24.26,0a5.49,5.49,0,0,0,1.46-.22,3.37,3.37,0,0,0,2.37-2.64Z"/><rect class="cls-1" x="16.71" y="8.42" width="16.68" height="24.96"/><circle class="cls-1" cx="27.08" cy="15.19" r="3.91"/><polyline class="cls-1" points="16.71 27.39 21.27 21.22 27.08 26.91 30.99 22.23 33.39 24.3"/><line class="cls-1" x1="36.47" y1="9.38" x2="55.83" y2="9.38"/><line class="cls-1" x1="36.47" y1="11.27" x2="52.46" y2="11.27"/><line class="cls-1" x1="36.47" y1="13.25" x2="54.03" y2="13.25"/><line class="cls-1" x1="36.47" y1="15.19" x2="54.03" y2="15.19"/><line class="cls-1" x1="36.47" y1="18.32" x2="49.38" y2="18.32"/><line class="cls-1" x1="36.47" y1="20.21" x2="52.46" y2="20.21"/><line class="cls-1" x1="36.47" y1="22.19" x2="54.03" y2="22.19"/><line class="cls-1" x1="36.47" y1="24.13" x2="54.03" y2="24.13"/><line class="cls-1" x1="36.47" y1="25.94" x2="54.03" y2="25.94"/></g></g></g></svg>