<svg xmlns="http://www.w3.org/2000/svg" viewBox="0 0 76.51 54.1"><g id="Layer_2" data-name="Layer 2"><g id="admin_panel" data-name="admin panel"><g id="dashboard"><path d="M38.16,54.1H4.32C1.24,54.09,0,52.88,0,49.84c0-15.17,0-30.33,0-45.5C0,1.17,2,0,4.39,0Q38.46.09,72.51,0c2.68,0,4,1.31,4,4V50.29a3.47,3.47,0,0,1-3.84,3.8H38.16Zm0-1.6H72.21c2.16,0,2.74-.56,2.74-2.7V4.55c0-2.47-.46-2.93-3-2.93H4.45c-2.34,0-2.86.51-2.86,2.81V49.81c0,2.15.55,2.69,2.74,2.69Z"/><path d="M31.85,8.87c-1,.77-1.8,1.56-2.75,2.21A1.6,1.6,0,0,1,27.82,11,12.08,12.08,0,0,0,12,16.43a19.88,19.88,0,0,0-1.39,5.23c-.25,1.35-.7,2.13-1.74,2.28A2,2,0,0,1,6.59,21.7C6.84,15.59,9.61,10.89,15,8s11-2.69,16.35.5C31.49,8.57,31.62,8.7,31.85,8.87Z"/><path d="M37.15,7c-.6.83-1.2,1.66-1.81,2.48q-5.15,7-10.28,14A3.06,3.06,0,0,1,22.18,25a2.54,2.54,0,0,1-2.25-1.77,2.61,2.61,0,0,1,.83-3l6.06-5L37,6.84Z"/><path d="M35.44,12.18a15.65,15.65,0,0,1,3.39,10,1.84,1.84,0,0,1-2,1.81,1.87,1.87,0,0,1-1.88-1.84,13.07,13.07,0,0,0-1.67-6.19.88.88,0,0,1,0-.79C34,14.15,34.68,13.21,35.44,12.18Z"/><path d="M60.77,22.13H71c.49,0,1.21-.14,1.15.63,0,.25-.75.62-1.16.63-6.81,0-13.62,0-20.44,0-.07,0-.17,0-.22,0-.34-.21-.66-.43-1-.65.33-.21.66-.6,1-.6C53.81,22.11,57.29,22.13,60.77,22.13Z"/><path d="M60.64,18.49H50.87a2.94,2.94,0,0,1-1-.07c-.23-.09-.51-.4-.5-.6s.29-.5.52-.59a3,3,0,0,1,1-.07H70.77a1.64,1.64,0,0,1,.67,0,5.65,5.65,0,0,1,.76.63c-.26.22-.51.58-.78.61a24.68,24.68,0,0,1-2.58,0Z"/><path d="M60.87,7.3h10a1.43,1.43,0,0,1,.66,0,3.43,3.43,0,0,1,.67.6,3.32,3.32,0,0,1-.66.64,1.94,1.94,0,0,1-.77.05H50.89c-.07,0-.16,0-.22,0L49.33,8c.44-.21.88-.61,1.33-.61,3.4-.06,6.81,0,10.21,0Z"/><path d="M60.81,12.23h9.77a3.29,3.29,0,0,1,1,.06c.24.07.62.39.58.51a1.1,1.1,0,0,1-.57.68,2.11,2.11,0,0,1-.88.07l-19.87,0c-.15,0-.34,0-.45,0-.37-.22-.71-.49-1.07-.73.35-.2.69-.56,1-.58,1.23-.07,2.47,0,3.7,0Z"/><rect x="6.59" y="31.92" width="9.24" height="15.36"/><rect x="19.64" y="31.92" width="22.62" height="15.36"/><path d="M68.12,31a15.39,15.39,0,0,1-2,0c-.26,0-.48-.35-.72-.53.2-.2.39-.55.6-.56a30.65,30.65,0,0,1,3.32,0,.91.91,0,0,1,.6.66,26.27,26.27,0,0,1,0,3.2c0,.23-.36.45-.55.67-.18-.24-.45-.47-.5-.74a12.38,12.38,0,0,1,0-1.79c-1.62,1.83-3,3.38-4.37,4.95-1.18,1.34-1.17,1.35-2.6.21-1.22-1-2.43-1.94-3.71-2.95l-4.87,4.59a4.41,4.41,0,0,1-.76.68,2.93,2.93,0,0,1-.9.17c0-.31-.08-.75.09-.92,2-1.91,4-3.79,6-5.62.18-.16.86,0,1.16.24,1.41,1,2.76,2.17,4.24,3.35.82-.92,1.62-1.81,2.42-2.72S67.15,32.13,68.12,31Z"/><path d="M70,42.08c0,1.33,0,2.67,0,4,0,.85-.24,1.24-1.17,1.21-2.49-.07-2.27.3-2.27-2.26,0-2.28,0-4.57,0-6.85,0-1,.27-1.36,1.29-1.33,2.39.07,2.15-.2,2.16,2.15C70,40,70,41.05,70,42.08Z"/><path d="M59.94,43c0,1.06,0,2.13,0,3.19,0,.73-.21,1.13-1,1.11-2.75-.06-2.38.3-2.41-2.34,0-1.75,0-3.5,0-5.25,0-.84.3-1.13,1.14-1.14,2.31,0,2.31-.06,2.31,2.26Z"/><path d="M61.53,43.81a21,21,0,0,1,0-2.63,1.14,1.14,0,0,1,.8-.78c3,0,2.59-.36,2.63,2.33,0,1.18,0,2.36,0,3.55,0,.71-.3,1-1,1-2.74-.05-2.41.31-2.44-2.33V43.81Z"/><path d="M51.47,44.6v-.8c0-1.71,0-1.71,1.77-1.71s1.69,0,1.7,1.71v1.14c0,2.46-.33,2.75-2.77,2.3a1.05,1.05,0,0,1-.66-.7,13.94,13.94,0,0,1,0-1.94Z"/></g></g></g></svg>