<svg xmlns="http://www.w3.org/2000/svg" viewBox="0 0 56.97 60.6"><g id="Layer_2" data-name="Layer 2"><g id="admin_panel" data-name="admin panel"><g id="jobs"><path d="M28.23,33.72c-.44-.23-.83-.41-1.19-.62q-12.87-7.5-25.73-15c-1.76-1-1.75-1.75.05-2.8C9.79,10.37,18.25,5.47,26.65.5a2.76,2.76,0,0,1,3.22,0C38.23,5.48,46.63,10.36,55,15.26c1.88,1.09,1.9,1.8.06,2.87L29.49,33.05C29.08,33.29,28.65,33.5,28.23,33.72ZM53,16.77c-.33-.24-.53-.41-.75-.54C44.53,11.71,36.79,7.17,29,2.7a2.11,2.11,0,0,0-1.78.12Q15.9,9.34,4.63,16c-.38.22-.74.49-1.2.81,8.1,4.73,16,9.38,24,14a2.19,2.19,0,0,0,1.83-.12c3-1.68,6-3.47,9-5.22Z"/><path d="M1.08,29c.64.34,1.16.61,1.66.9,8,4.69,16.08,9.35,24.07,14.09a2.4,2.4,0,0,0,2.86,0c8-4.7,16-9.34,23.94-14,.37-.22.74-.57,1.12-.6a5.87,5.87,0,0,1,1.52.31c-.14.51-.12,1.24-.46,1.49a30.19,30.19,0,0,1-3.14,1.91C45,37.55,37.4,42,29.82,46.47a2.76,2.76,0,0,1-3.21,0c-8.37-5-16.78-9.83-25.18-14.74a3,3,0,0,1-1-.71,1.46,1.46,0,0,1-.19-1.16C.31,29.51.75,29.3,1.08,29Z"/><path d="M57,43.65a15.39,15.39,0,0,1-1.75,1.51q-8.56,5-17.16,10c-2.86,1.67-5.74,3.31-8.58,5a2.16,2.16,0,0,1-2.5,0q-12.85-7.55-25.75-15c-.71-.41-1.56-.85-1-1.83s1.43-.51,2.19-.07C10.6,48.07,18.82,52.84,27,57.68a2.06,2.06,0,0,0,2.43,0q12.15-7.17,24.35-14.24c.41-.24.86-.64,1.27-.62A6.76,6.76,0,0,1,57,43.65Z"/></g></g></g></svg>