<svg xmlns="http://www.w3.org/2000/svg" viewBox="0 0 63.99 64"><defs><style>.cls-1{fill:#fff;}</style></defs><g id="Layer_2" data-name="Layer 2"><g id="icon-set"><g id="settings"><path class="cls-1" d="M38.3,10c1.38.59,2.62,1.21,3.94,1.63a2,2,0,0,0,1.6-.32c1.81-1.37,3.57-2.82,5.31-4.29a2.07,2.07,0,0,1,3.28.16c1.43,1.52,2.91,3,4.42,4.43A2,2,0,0,1,57,14.78c-1.42,1.69-2.77,3.45-4.21,5.12-.66.76-.56,1.35-.35,2.32.7,3.27,2.84,4,5.73,3.91a12,12,0,0,1,1.87.24c4,.5,4,.5,4,4.59,0,1.39,0,2.79,0,4.18.05,1.59-.73,2.26-2.27,2.38-2.07.15-4.14.5-6.21.6-1.27.07-1.64.73-2.27,1.73-1.52,2.45-.91,4.22,1,6,1,1,1.84,2.25,2.78,3.35a2,2,0,0,1-.15,3.14c-1.55,1.49-3.06,3-4.56,4.56a1.94,1.94,0,0,1-3,.13c-1.66-1.37-3.38-2.67-5-4.1-.92-.82-1.63-.68-2.8-.42-3.1.68-3.63,2.7-3.64,5.34,0,1.38-.27,2.76-.4,4.15a2,2,0,0,1-2.26,2Q32,64,28.76,64c-1.5,0-2.14-.73-2.27-2.18-.23-2.63-.53-5.27-.8-7.85-1.38-.59-2.63-1.21-3.94-1.63a2,2,0,0,0-1.6.32C18.33,54,16.57,55.48,14.84,57a2.07,2.07,0,0,1-3.28-.16c-1.43-1.52-2.91-3-4.42-4.43A2,2,0,0,1,7,49.22c1.41-1.69,2.76-3.45,4.21-5.12.65-.76.55-1.35.35-2.32-.7-3.27-2.84-4-5.73-3.91A12.24,12.24,0,0,1,4,37.63C0,37.13,0,37.13,0,33c0-1.39,0-2.79,0-4.18,0-1.59.74-2.26,2.27-2.38,2.08-.15,4.14-.5,6.22-.6,1.26-.07,1.64-.73,2.26-1.73,1.52-2.45.92-4.22-1-6-1-1-1.84-2.25-2.78-3.35a2,2,0,0,1,.15-3.14c1.55-1.49,3.06-3,4.55-4.56a2,2,0,0,1,3-.13c1.66,1.37,3.37,2.67,5,4.1.92.82,1.63.68,2.8.42,3.1-.68,3.63-2.7,3.65-5.34,0-1.38.27-2.76.39-4.15a2,2,0,0,1,2.27-2c2.15,0,4.29,0,6.44,0,1.51,0,2.15.73,2.28,2.18C37.73,4.81,38,7.45,38.3,10ZM50.49,43.22c.72-1.73,1.49-3.26,2-4.88A1.58,1.58,0,0,1,54.17,37c2.39-.18,4.77-.51,7.16-.7,1-.08,1.45-.49,1.42-1.53-.06-1.9.07-3.8-.08-5.69a2,2,0,0,0-1.25-1.35,29,29,0,0,0-5.08-.51c-2.34,0-4.07-.57-4.49-3.28a13,13,0,0,0-1.41-3.12l6-7.43-5.74-6-7.47,6c-1.77-.74-3.37-1.32-4.89-2.08A2.45,2.45,0,0,1,37.1,10c-.36-2.37-.59-4.77-.77-7.16-.08-1.07-.41-1.61-1.59-1.56q-2.75.12-5.49,0c-1.18-.05-1.53.48-1.59,1.56-.1,1.7-.42,3.39-.44,5.09,0,2.23-.6,3.79-3.12,4.22a13.58,13.58,0,0,0-3.26,1.45L13.51,7.64l-6,5.68,6,7.45c-.71,1.72-1.31,3.38-2.09,4.94a2.35,2.35,0,0,1-1.5,1.18c-2.37.36-4.76.6-7.15.77-1.12.08-1.56.5-1.51,1.64.06,1.77.07,3.54,0,5.31-.05,1.21.4,1.66,1.61,1.74,2.39.16,4.78.43,7.16.75a2,2,0,0,1,1.33.91c.79,1.69,1.43,3.45,2.15,5.23L7.64,50.49l5.81,5.94,7.31-5.92c1.77.73,3.42,1.34,5,2.1A2.19,2.19,0,0,1,26.88,54c.35,2.37.59,4.76.76,7.15.09,1.16.43,1.73,1.7,1.66a52.25,52.25,0,0,1,5.31,0c1.26.06,1.61-.49,1.69-1.65.17-2.4.44-4.78.75-7.16a1.79,1.79,0,0,1,.77-1.26c1.76-.8,3.57-1.46,5.39-2.17l7.09,5.73,6.06-5.73Z"/><path class="cls-1" d="M42.82,32A10.83,10.83,0,1,1,32,21.17,10.85,10.85,0,0,1,42.82,32ZM32,41.6a9.6,9.6,0,1,0-9.61-9.69A9.7,9.7,0,0,0,32,41.6Z"/></g></g></g></svg>