<svg xmlns="http://www.w3.org/2000/svg" viewBox="0 0 59.75 56"><g id="Layer_2" data-name="Layer 2"><g id="admin_panel" data-name="admin panel"><g id="subscription"><path d="M44.78,41H43c0-.14,0-.28,0-.41V4.76a4.91,4.91,0,0,1,.92-2.89l-.45,0c-7.58,0-15.15,0-22.72,0a3.81,3.81,0,0,0-3.87,3A6.67,6.67,0,0,0,16.78,6V41H15c0-.16,0-.31,0-.46q0-17.35,0-34.69A5.59,5.59,0,0,1,19.14.21,6.71,6.71,0,0,1,20.68,0H47.47a4.67,4.67,0,0,1,4.75,4.05,5,5,0,0,1,0,.86q0,10,0,20a2.71,2.71,0,0,0,.16,1A1.87,1.87,0,0,0,56,25.4q0-.31,0-.63V8c0-.17,0-.35,0-.57h-1.8V5.66h3.65V25A3.78,3.78,0,0,1,54,28.92c-2.28,0-4.56,0-6.85,0-.34,0-.46-.08-.43-.44a7.36,7.36,0,0,0,0-1.05c0-.29.1-.36.36-.35,1.13,0,2.27,0,3.4,0H51c-.71-1.17-.51-2.39-.51-3.58q0-9.35,0-18.69a2.83,2.83,0,0,0-5.64-.43c0,.24,0,.49,0,.74V41Z"/><path d="M59.75,48.59c0,1,0,1.95,0,2.9a.59.59,0,0,1-.16.37c-1.32,1.32-2.63,2.64-4,4a.85.85,0,0,1-.44.17,3.85,3.85,0,0,1-.59,0H4.78A1,1,0,0,1,4,55.66C2.75,54.42,1.53,53.2.29,52A.88.88,0,0,1,0,51.27c0-.89,0-1.77,0-2.7H23.33a.85.85,0,0,1,.69.28c.42.46.86.91,1.31,1.34a1,1,0,0,0,.58.24c2.64,0,5.29,0,7.93,0a.91.91,0,0,0,.58-.24c.47-.44.91-.93,1.38-1.37a.87.87,0,0,1,.54-.23c7.69,0,15.38,0,23.06,0ZM1.9,50.36a.81.81,0,0,0,.25.92C3,52.14,3.9,53,4.79,53.89a1,1,0,0,0,.61.25c2.2,0,4.4,0,6.61,0H54.28a1,1,0,0,0,.75-.31c.86-.88,1.72-1.75,2.61-2.59a.8.8,0,0,0,.22-.88l-.21,0H37.05a.78.78,0,0,0-.47.21c-.51.47-1,1-1.48,1.45a.77.77,0,0,1-.47.2c-3.17,0-6.33,0-9.5,0a.77.77,0,0,1-.47-.2q-.72-.66-1.38-1.38a.9.9,0,0,0-.72-.29H1.9Z"/><path d="M7.54,18.71H13V20.5H11.85c-.73,0-1.46,0-2.19,0-.28,0-.39.09-.36.36a1.61,1.61,0,0,1,0,.31V42.91H50.44V30.85h1.78V44.73H7.54Z"/><path d="M5.56,46.6H3.76V18.74A3.72,3.72,0,0,1,7.4,15c1.82-.05,3.65,0,5.47,0L13,15v1.76l-.46,0H7.71a1.92,1.92,0,0,0-2.14,2.15q0,13.56,0,27.1Z"/><path d="M30.79,39.15H29c0-.51,0-1,0-1.52a.51.51,0,0,0-.39-.59,3.57,3.57,0,0,1-2.36-3.38H28c.05.19.08.38.14.56A1.89,1.89,0,0,0,30,35.48,1.92,1.92,0,0,0,31.74,34a1,1,0,0,0-.33-1.1c-.62-.46-1.27-.89-1.92-1.31s-1.29-.74-1.88-1.18c-2.7-2-1.12-5.11.88-5.85a.62.62,0,0,0,.48-.74c0-.45,0-.9,0-1.37h1.83c0,.5,0,1,0,1.51a.48.48,0,0,0,.38.56,3.67,3.67,0,0,1,2.36,2.8,5.57,5.57,0,0,1,0,.63C33,28,32.48,28,32,28c-.07,0-.17-.17-.19-.28a1.91,1.91,0,0,0-1.66-1.57,1.88,1.88,0,0,0-2,1.31,1,1,0,0,0,.27,1.24c.6.46,1.23.87,1.85,1.29s1.51.88,2.19,1.43a3.1,3.1,0,0,1,0,4.87,4.68,4.68,0,0,1-1.28.8.48.48,0,0,0-.35.54C30.81,38.1,30.79,38.62,30.79,39.15Z"/><path d="M18.72,11.14V9.4H41v1.74Z"/><path d="M18.72,18.6V16.85H41V18.6Z"/><path d="M18.7,13.13H41v1.75c-.15,0-.3,0-.45,0H19.16c-.38,0-.49-.11-.47-.48S18.7,13.59,18.7,13.13Z"/><path d="M54.23,30.85H56V46.59H54.23Z"/><path d="M24.22,31.68H22.47V29.92h1.75Z"/><path d="M37.28,31.68H35.53V29.92h1.75Z"/><path d="M29,5.63c.58,0,1.09,0,1.59,0a.31.31,0,0,1,.22.22,11.8,11.8,0,0,1,0,1.33c0,.08-.16.22-.26.23q-.64,0-1.29,0c-.09,0-.25-.12-.25-.19C29,6.71,29,6.19,29,5.63Z"/><path d="M27,7.41H25.28V5.66H27Z"/><path d="M32.74,5.64h1.74V7.39H32.74Z"/></g></g></g></svg>