<svg xmlns="http://www.w3.org/2000/svg" viewBox="0 0 56.6 52.95"><g id="Layer_2" data-name="Layer 2"><g id="admin_panel" data-name="admin panel"><g id="users"><path d="M28.17,53H15.64c-5.33,0-8.33-3.12-8.13-8.43a28.45,28.45,0,0,1,1.75-9.88c1.32-3.21,3.39-5.58,7-6.17a3.54,3.54,0,0,1,2.77.59,16.88,16.88,0,0,0,6.75,3.18,13.48,13.48,0,0,0,9.57-1.78c.36-.22.71-.46,1.07-.69a6.14,6.14,0,0,1,8.25.83,12,12,0,0,1,3.39,6.47,52.11,52.11,0,0,1,1,8c.16,4.87-3,7.9-7.85,7.91C36.87,53,32.52,53,28.17,53Z"/><path d="M28.29,30.21A11.3,11.3,0,1,1,39.65,18.86,11.28,11.28,0,0,1,28.29,30.21Z"/><path d="M15.13,17.14a13.63,13.63,0,0,0,2.25,9.26c-.74.11-1.31.16-1.87.28a10.63,10.63,0,0,0-5.22,2.8,2.72,2.72,0,0,1-1.63.69,23.42,23.42,0,0,1-5-.23C1,29.41-.08,27.91,0,25.23a56.84,56.84,0,0,1,.53-6.1,8.24,8.24,0,0,1,1-2.72,2,2,0,0,1,3-.81c2.4,1.28,4.87,2.29,7.67,2C13.16,17.51,14.07,17.31,15.13,17.14Z"/><path d="M39.52,26.29a33.07,33.07,0,0,0,1.64-4.41,34.18,34.18,0,0,0,.49-4.8c3.83,1.33,7.35.22,10.77-1.67a1.77,1.77,0,0,1,2.57.95,16.38,16.38,0,0,1,1.3,4.09,30.93,30.93,0,0,1,.31,4.72,4.51,4.51,0,0,1-4.5,5c-1.53.13-3.07.05-4.61.05a1.23,1.23,0,0,1-.7-.21,27.54,27.54,0,0,0-3.38-2.47A24.39,24.39,0,0,0,39.52,26.29Z"/><path d="M3.77,7.49a7.51,7.51,0,1,1,15,.17,7.38,7.38,0,0,1-7.6,7.44A7.41,7.41,0,0,1,3.77,7.49Z"/><path d="M52.83,7.61a7.52,7.52,0,1,1-15-.07,7.52,7.52,0,1,1,15,.07Z"/></g></g></g></svg>